<svg width="17.5em" height="2.625em" viewBox="0 0 280 42" fill="none" xmlns="http://www.w3.org/2000/svg">
<path d="M100.949 8.60352H96.4263V34.8937H100.949V8.60352Z" fill="white"/>
<path d="M108.902 8.60352H104.379V34.8937H108.902V8.60352Z" fill="white"/>
<path d="M158.013 24.0239L165.356 15.8474H159.478L152.777 23.5415V8.60352H148.254V34.8937H152.777V29.8206L154.923 27.473L160.088 34.8937H165.665L158.013 24.0239Z" fill="white"/>
<path d="M204.914 15.5008C203.676 15.4752 202.453 15.7772 201.365 16.3772C200.354 16.942 199.549 17.8213 199.068 18.8856V15.8465H194.648V42H199.171V32.1191C200.351 34.0808 202.228 35.0536 204.811 35.0536C205.914 35.0816 207.01 34.8717 208.027 34.4379C209.045 34.0041 209.96 33.3563 210.712 32.5372C212.296 30.8595 213.088 28.4315 213.088 25.2531C213.088 22.0747 212.312 19.6628 210.759 18.0173C210.019 17.1975 209.114 16.5487 208.106 16.1145C207.097 15.6804 206.009 15.4711 204.914 15.5008ZM207.155 29.5062C206.735 29.9751 206.221 30.3475 205.647 30.5985C205.073 30.8494 204.453 30.9732 203.829 30.9614C203.198 30.9731 202.572 30.8519 201.99 30.6056C201.407 30.3593 200.882 29.9932 200.446 29.5303C199.956 28.9571 199.582 28.2914 199.345 27.5712C199.109 26.8511 199.015 26.0907 199.068 25.3335C199.014 24.5775 199.108 23.8182 199.344 23.0992C199.581 22.3803 199.955 21.716 200.446 21.1448C200.881 20.6803 201.406 20.3131 201.988 20.0667C202.571 19.8202 203.198 19.7 203.829 19.7137C204.452 19.7024 205.071 19.8256 205.645 20.0751C206.218 20.3245 206.733 20.6946 207.155 21.1609C208.132 22.3162 208.621 23.815 208.518 25.3335C208.621 26.852 208.132 28.3508 207.155 29.5062Z" fill="white"/>
<path d="M242.008 30.8198C241.736 30.8553 241.459 30.8297 241.198 30.745C240.937 30.6603 240.697 30.5184 240.495 30.3294C240.205 29.9068 240.068 29.3956 240.107 28.8822V19.9822H243.846V15.8416H240.107V10.2861L235.584 11.5645V15.8416H232.154V19.9822H235.584V28.6732C235.584 31.069 236.059 32.7038 237.01 33.5775C237.968 34.4538 239.386 34.888 241.327 34.888H244.289V30.8198H242.008Z" fill="white"/>
<path d="M85.598 15.5017C84.4084 15.4755 83.2258 15.6942 82.1217 16.1447C81.0176 16.5952 80.0148 17.268 79.174 18.1227C77.4314 19.8754 76.5601 22.3141 76.5601 25.4389C76.5601 28.5637 77.4419 31.0025 79.2057 32.7551C80.9018 34.4235 83.181 35.3402 85.5426 35.3038C87.5144 35.3352 89.4421 34.7112 91.0319 33.527C92.5298 32.434 93.552 30.7942 93.8835 28.9523H89.7249C89.4915 29.6637 89.0135 30.2659 88.3784 30.6487C87.5872 31.1211 86.6821 31.3605 85.7644 31.3401C84.5254 31.3857 83.314 30.9616 82.3662 30.1502C81.9007 29.7211 81.5318 29.1952 81.2844 28.6084C81.037 28.0215 80.917 27.3875 80.9325 26.7494H93.9865V24.8842C93.9865 21.8773 93.1944 19.5538 91.6102 17.9378C90.826 17.1353 89.8876 16.505 88.8534 16.0859C87.8192 15.6669 86.7111 15.468 85.598 15.5017ZM81.0434 23.4048C81.0966 22.8297 81.2645 22.2716 81.5369 21.7643C81.8092 21.2571 82.1803 20.8114 82.6276 20.4542C83.4827 19.7952 84.5325 19.4495 85.606 19.4734C86.6622 19.4264 87.6946 19.8017 88.4813 20.5186C88.8573 20.8934 89.1522 21.3437 89.3472 21.8406C89.5422 22.3376 89.6331 22.8703 89.6141 23.4048H81.0434Z" fill="white"/>
<path d="M223.377 15.5013C222.188 15.4741 221.005 15.6924 219.901 16.143C218.796 16.5935 217.794 17.2669 216.953 18.1223C215.206 19.8749 214.332 22.3137 214.332 25.4385C214.332 28.5633 215.216 31.002 216.985 32.7547C217.825 33.5812 218.816 34.2316 219.904 34.6689C220.991 35.1062 222.153 35.3218 223.322 35.3033C225.294 35.3348 227.222 34.7108 228.811 33.5265C230.327 32.4424 231.367 30.8014 231.71 28.9519H227.512C227.276 29.6618 226.799 30.2633 226.166 30.6483C225.225 31.1759 224.152 31.4101 223.082 31.3214C222.011 31.2327 220.989 30.8252 220.146 30.1498C219.683 29.7189 219.316 29.1925 219.07 28.606C218.824 28.0194 218.705 27.3863 218.72 26.749H231.774V24.8837C231.774 21.8769 230.982 19.5534 229.397 17.9374C228.613 17.1327 227.674 16.501 226.638 16.0819C225.602 15.6627 224.492 15.465 223.377 15.5013ZM218.823 23.4044C218.871 22.8324 219.033 22.2761 219.298 21.769C219.564 21.262 219.927 20.8146 220.367 20.4538C221.223 19.7948 222.272 19.4491 223.346 19.473C224.399 19.4273 225.429 19.8025 226.213 20.5181C226.589 20.8938 226.884 21.344 227.08 21.8406C227.276 22.3372 227.369 22.8696 227.354 23.4044H218.823Z" fill="white"/>
<path d="M120.023 15.5009C118.833 15.4747 117.651 15.6934 116.546 16.1439C115.442 16.5943 114.44 17.2672 113.599 18.1218C111.856 19.8745 110.985 22.3133 110.985 25.4381C110.985 28.5629 111.867 31.0016 113.631 32.7543C114.474 33.593 115.474 34.253 116.571 34.696C117.669 35.1391 118.842 35.3563 120.023 35.3351C121.995 35.3665 123.922 34.7425 125.512 33.5583C127.004 32.4624 128.02 30.823 128.348 28.9836H124.189C123.956 29.695 123.478 30.2972 122.843 30.68C122.052 31.1524 121.146 31.3918 120.229 31.3715C118.994 31.4021 117.791 30.9667 116.854 30.1494C116.389 29.7202 116.02 29.1943 115.773 28.6075C115.525 28.0207 115.405 27.3867 115.421 26.7486H128.475V24.8833C128.475 21.8764 127.683 19.5529 126.098 17.9369C125.307 17.1264 124.358 16.4914 123.312 16.0721C122.267 15.6527 121.146 15.4583 120.023 15.5009ZM115.468 23.404C115.517 22.8319 115.678 22.2757 115.944 21.7686C116.209 21.2616 116.573 20.8142 117.013 20.4534C117.877 19.7874 118.939 19.4413 120.023 19.4725C121.079 19.4256 122.111 19.8008 122.898 20.5177C123.274 20.8926 123.569 21.3428 123.764 21.8398C123.959 22.3367 124.05 22.8694 124.031 23.404H115.468Z" fill="white"/>
<path d="M143.565 24.7792C141.977 24.134 140.308 23.7173 138.606 23.5411C137.574 23.4257 136.558 23.1883 135.58 22.8336C135.3 22.7308 135.059 22.5395 134.894 22.2877C134.728 22.0359 134.647 21.7369 134.661 21.4347C134.664 21.1378 134.738 20.8461 134.875 20.5843C135.013 20.3225 135.212 20.0984 135.453 19.9312C136.159 19.4724 136.994 19.2607 137.83 19.3282C139.802 19.3282 140.927 20.1322 141.188 21.6357H145.624C145.569 20.768 145.333 19.922 144.933 19.153C144.533 18.3841 143.978 17.7095 143.303 17.1736C141.692 15.9997 139.739 15.4106 137.758 15.5013C135.873 15.4288 134.014 15.9604 132.443 17.0208C131.737 17.534 131.172 18.2208 130.799 19.0168C130.426 19.8127 130.259 20.6918 130.313 21.5714C130.313 21.708 130.313 21.8367 130.313 21.9653C130.3 22.8255 130.525 23.672 130.962 24.4093C131.399 25.1467 132.03 25.7454 132.784 26.138C133.461 26.4763 134.177 26.7301 134.915 26.8937L135.469 27.0304L136.554 27.2555L136.895 27.3198L138.154 27.5449C139.105 27.6563 140.037 27.8942 140.927 28.2524C141.146 28.3586 141.329 28.5283 141.453 28.7401C141.577 28.9519 141.637 29.1963 141.624 29.4423C141.624 30.8252 140.531 31.5086 138.36 31.5086C135.984 31.5086 134.645 30.6563 134.329 28.9519H129.742C129.8 29.9222 130.07 30.8672 130.534 31.7176C131.009 32.5807 131.693 33.306 132.522 33.824C133.334 34.3271 134.215 34.7038 135.136 34.9416C136.105 35.188 137.1 35.3096 138.099 35.3034C140.11 35.3902 142.095 34.8272 143.77 33.6954C144.51 33.1757 145.108 32.4736 145.507 31.6551C145.906 30.8366 146.093 29.9285 146.052 29.0162C146.104 28.1382 145.895 27.2645 145.451 26.5088C145.008 25.7531 144.35 25.1505 143.565 24.7792Z" fill="white"/>
<path d="M167.455 35.9944C167.493 36.5103 167.356 37.024 167.067 37.4497C166.864 37.6363 166.624 37.7761 166.362 37.8594C166.101 37.9427 165.825 37.9675 165.554 37.932H164.025V42.0002H166.235C168.162 42.0002 169.601 41.5634 170.552 40.6897C171.502 39.816 171.978 38.184 171.978 35.7935V15.8467H167.455V35.9944Z" fill="white"/>
<path d="M189.539 17.8726L190.949 15.8867L189.523 14.8496L188.145 16.7952C186.658 15.9089 184.958 15.4606 183.234 15.5008C182.015 15.4589 180.801 15.6753 179.669 16.1363C178.537 16.5973 177.512 17.2927 176.659 18.1781C174.948 19.9576 174.093 22.3695 174.093 25.4139C174.025 26.7326 174.217 28.0518 174.658 29.2943C175.099 30.5367 175.779 31.6775 176.659 32.6498L176.802 32.7864L175.297 34.9089L176.723 35.9541L178.172 33.912C179.683 34.8785 181.44 35.3733 183.226 35.3351C184.451 35.3812 185.671 35.1676 186.81 34.7081C187.949 34.2485 188.981 33.5529 189.84 32.6658C190.72 31.6936 191.401 30.5528 191.841 29.3104C192.282 28.0679 192.474 26.7487 192.406 25.43C192.406 22.391 191.551 19.979 189.84 18.1942L189.539 17.8726ZM178.711 25.5426C178.613 24.021 179.045 22.5128 179.931 21.2815C180.322 20.791 180.821 20.3998 181.388 20.1389C181.954 19.8779 182.573 19.7544 183.194 19.778C184.033 19.7574 184.859 19.9866 185.571 20.4373L179.535 28.9434C178.953 27.9101 178.667 26.732 178.711 25.5426ZM186.561 29.5625C186.167 30.0505 185.668 30.4395 185.102 30.6989C184.536 30.9583 183.918 31.0812 183.297 31.0579C182.385 31.0659 181.494 30.7848 180.747 30.2539L186.165 22.6241L186.846 21.6674C187.518 22.7379 187.847 23.9932 187.788 25.2612C187.883 26.7861 187.449 28.2967 186.561 29.5303V29.5625Z" fill="white"/>
<path d="M58.064 34.8929H62.785V24.0552H74.5795V19.5368H62.785V13.4989H75.1973V9.0127H58.064V34.8929Z" fill="white"/>
<path d="M169.72 7.82324C169.181 7.82324 168.654 7.98545 168.206 8.28935C167.758 8.59325 167.409 9.02519 167.203 9.53055C166.996 10.0359 166.942 10.592 167.047 11.1285C167.153 11.665 167.412 12.1578 167.793 12.5446C168.174 12.9314 168.66 13.1948 169.188 13.3015C169.717 13.4082 170.265 13.3534 170.763 13.1441C171.261 12.9348 171.686 12.5803 171.986 12.1255C172.285 11.6707 172.445 11.1359 172.445 10.5889C172.445 9.85543 172.158 9.15196 171.647 8.6333C171.136 8.11463 170.443 7.82324 169.72 7.82324Z" fill="white"/>
<path d="M0 42H41.3799V0H0V42ZM20.6899 3.02297C24.193 3.02297 27.6173 4.0773 30.53 6.05264C33.4427 8.02798 35.7128 10.8356 37.0533 14.1205C38.3939 17.4054 38.7446 21.0199 38.0612 24.5071C37.3778 27.9943 35.691 31.1975 33.214 33.7117C30.7369 36.2258 27.581 37.9379 24.1453 38.6316C20.7096 39.3252 17.1484 38.9692 13.912 37.6086C10.6756 36.248 7.90946 33.9438 5.96328 30.9875C4.01711 28.0312 2.97834 24.5555 2.97834 21C2.97834 16.2322 4.84438 11.6597 8.16595 8.28831C11.4875 4.91697 15.9925 3.02297 20.6899 3.02297Z" fill="white"/>
<path d="M10.1865 21.8361H14.4322V19.8502H10.1865V17.4544H14.6619V15.4766H8.22998V26.5795H10.1865V21.8361Z" fill="white"/>
<path d="M28.6747 23.8862L29.8549 21.9808L32.2471 26.5795H34.4571L31.154 20.2522L34.1165 15.4766H31.8114L28.6747 20.5416V15.4766H26.7261V26.5795H28.6747V23.8862Z" fill="white"/>
<path d="M20.6898 30.2699C20.3525 30.2637 20.0173 30.2151 19.6917 30.1252L19.4541 31.0257C19.7145 31.0906 19.9793 31.1363 20.2462 31.1624V35.9863H21.1651V31.1624C21.4323 31.134 21.697 31.0856 21.9572 31.0176L21.7354 30.1172C21.3948 30.2138 21.0434 30.2651 20.6898 30.2699Z" fill="white"/>
<path d="M20.6898 29.6425C21.5607 29.6428 22.3971 29.2972 23.0203 28.6797C23.6434 28.0623 24.0039 27.2218 24.0246 26.3382V8.20034H23.1136V15.5809C23.1136 16.4492 22.8681 16.8351 21.9096 17.4622C21.6041 17.6214 21.3344 17.8432 21.1175 18.1134V17.0843V6.05371H20.2462V16.8833V18.1134C20.0262 17.8548 19.7567 17.6442 19.4541 17.4944C19.0464 17.3169 18.7076 17.0082 18.49 16.6159C18.2724 16.2236 18.1881 15.7694 18.2501 15.3236V8.20034H17.355V26.3382C17.3737 27.2225 17.7335 28.0641 18.3571 28.682C18.9807 29.3 19.8183 29.6448 20.6898 29.6425ZM21.1492 20.5415C21.1249 20.0788 21.2294 19.6185 21.4507 19.2133C21.672 18.8081 22.0013 18.4743 22.4007 18.2501C22.6613 18.0788 22.9006 17.8763 23.1136 17.6471V18.9898C23.175 19.4365 23.0896 19.8914 22.8705 20.2838C22.6514 20.6763 22.3108 20.9844 21.9017 21.1605C21.5962 21.3198 21.3265 21.5415 21.1096 21.8117L21.1492 20.5415ZM21.1492 24.2317C21.1268 23.7694 21.232 23.3099 21.4532 22.905C21.6743 22.5001 22.0025 22.166 22.4007 21.9404C22.6628 21.7743 22.9024 21.5743 23.1136 21.3454V22.6881C23.175 23.1348 23.0896 23.5897 22.8705 23.9821C22.6514 24.3746 22.3108 24.6827 21.9017 24.8588C21.5944 25.0152 21.3241 25.2374 21.1096 25.5101L21.1492 24.2317ZM21.1492 27.922C21.1557 27.465 21.2733 27.0167 21.4916 26.6169C21.71 26.2172 22.0223 25.8784 22.4007 25.6307C22.663 25.4618 22.9027 25.2591 23.1136 25.0277V26.2578C23.1128 26.8287 22.9163 27.3816 22.5579 27.8216C22.1995 28.2617 21.7015 28.5615 21.1492 28.6697V27.922ZM18.2738 17.6471C18.4851 17.8782 18.7247 18.0808 18.9867 18.2501C19.387 18.474 19.7174 18.8074 19.94 19.2126C20.1627 19.6177 20.2688 20.0781 20.2462 20.5415V21.8117C20.0293 21.5415 19.7596 21.3198 19.4541 21.1605C19.0464 20.9831 18.7076 20.6744 18.49 20.282C18.2724 19.8897 18.1881 19.4356 18.2501 18.9898L18.2738 17.6471ZM18.2738 21.3454C18.4834 21.5761 18.7233 21.7763 18.9867 21.9404C19.3858 22.1657 19.7151 22.4995 19.9376 22.9042C20.1601 23.309 20.2669 23.7687 20.2462 24.2317V25.5342C20.0317 25.2615 19.7614 25.0393 19.4541 24.883C19.0464 24.7055 18.7076 24.3968 18.49 24.0045C18.2724 23.6121 18.1881 23.158 18.2501 22.7122L18.2738 21.3454ZM18.2738 25.0277C18.483 25.261 18.7229 25.4639 18.9867 25.6307C19.3705 25.8791 19.6868 26.2212 19.9068 26.6257C20.1268 27.0301 20.2435 27.4841 20.2462 27.9461V28.6938C19.6911 28.5928 19.1896 28.2947 18.8312 27.8528C18.4727 27.411 18.2808 26.8542 18.2897 26.2819L18.2738 25.0277Z" fill="white"/>
</svg>
