<svg width="311" height="54" viewBox="0 0 311 54" fill="none" xmlns="http://www.w3.org/2000/svg">
<path d="M26.2318 49.685C38.6338 49.685 48.6876 39.5285 48.6876 26.9997C48.6876 14.471 38.6338 4.31445 26.2318 4.31445C13.8298 4.31445 3.776 14.471 3.776 26.9997C3.776 39.5285 13.8298 49.685 26.2318 49.685Z" fill="#FFE500"/>
<path d="M0 53.5H52.4638V0.5H0V53.5ZM26.2319 4.3147C30.6732 4.3147 35.0148 5.64517 38.7077 8.13786C42.4005 10.6306 45.2787 14.1735 46.9783 18.3187C48.678 22.4639 49.1227 27.0252 48.2562 31.4257C47.3897 35.8262 45.251 39.8683 42.1105 43.0409C38.97 46.2135 34.9688 48.3741 30.6128 49.2494C26.2568 50.1247 21.7417 49.6755 17.6384 47.9585C13.5352 46.2415 10.0281 43.3338 7.56059 39.6033C5.09312 35.8727 3.77611 31.4867 3.77611 27C3.77611 20.9835 6.14198 15.2134 10.3533 10.9591C14.5645 6.70475 20.2763 4.3147 26.2319 4.3147Z" fill="#00803E"/>
<path d="M12.9152 28.0549H18.2981V25.5489H12.9152V22.5256H18.5894V20.0298H10.4346V34.0407H12.9152V28.0549Z" fill="#00803E"/>
<path d="M36.3551 30.642L37.8514 28.2375L40.8844 34.0407H43.6863L39.4985 26.0562L43.2545 20.0298H40.332L36.3551 26.4214V20.0298H33.8845V34.0407H36.3551V30.642Z" fill="#00803E"/>
<path d="M26.232 38.6976C25.8043 38.6898 25.3793 38.6284 24.9666 38.515L24.6653 39.6513C24.9955 39.7333 25.3311 39.7909 25.6696 39.8238V45.9111H26.8345V39.8238C27.1733 39.788 27.509 39.727 27.8388 39.6412L27.5576 38.5049C27.1258 38.6268 26.6802 38.6916 26.232 38.6976Z" fill="#00803E"/>
<path d="M26.2318 37.9065C27.336 37.9068 28.3965 37.4707 29.1865 36.6915C29.9766 35.9123 30.4336 34.8518 30.4599 33.7367V10.8485H29.3049V20.162C29.3049 21.2578 28.9936 21.7447 27.7784 22.5361C27.3911 22.737 27.0491 23.0168 26.7741 23.3579V22.0592V8.13965H25.6694V21.8056V23.3579C25.3904 23.0315 25.0488 22.7657 24.6651 22.5767C24.1483 22.3528 23.7187 21.9632 23.4428 21.4681C23.1669 20.973 23.06 20.4 23.1386 19.8374V10.8485H22.0038V33.7367C22.0275 34.8527 22.4837 35.9147 23.2743 36.6944C24.0649 37.4742 25.1269 37.9094 26.2318 37.9065ZM26.8143 26.4218C26.7835 25.838 26.916 25.2572 27.1966 24.7458C27.4772 24.2345 27.8946 23.8133 28.4011 23.5303C28.7314 23.3141 29.0349 23.0587 29.3049 22.7694V24.4637C29.3828 25.0275 29.2744 25.6014 28.9966 26.0967C28.7188 26.5919 28.2871 26.9808 27.7684 27.203C27.381 27.4039 27.0391 27.6838 26.7641 28.0248L26.8143 26.4218ZM26.8143 31.0786C26.7859 30.4951 26.9194 29.9153 27.1997 29.4044C27.4801 28.8935 27.8962 28.4719 28.4011 28.1871C28.7333 27.9775 29.0371 27.7251 29.3049 27.4363V29.1306C29.3828 29.6944 29.2744 30.2684 28.9966 30.7636C28.7188 31.2588 28.2871 31.6477 27.7684 31.8699C27.3787 32.0672 27.0361 32.3476 26.7641 32.6917L26.8143 31.0786ZM26.8143 35.7354C26.8225 35.1586 26.9716 34.5929 27.2485 34.0884C27.5253 33.584 27.9212 33.1565 28.4011 32.8439C28.7336 32.6308 29.0374 32.375 29.3049 32.083V33.6352C29.3039 34.3557 29.0548 35.0534 28.6004 35.6087C28.146 36.164 27.5146 36.5423 26.8143 36.6789V35.7354ZM23.1688 22.7694C23.4366 23.061 23.7404 23.3167 24.0726 23.5303C24.5802 23.8128 24.9989 24.2336 25.2813 24.7449C25.5636 25.2561 25.6981 25.8371 25.6694 26.4218V28.0248C25.3944 27.6838 25.0525 27.4039 24.6651 27.203C24.1483 26.9791 23.7187 26.5895 23.4428 26.0944C23.1669 25.5994 23.06 25.0263 23.1386 24.4637L23.1688 22.7694ZM23.1688 27.4363C23.4344 27.7274 23.7386 27.9801 24.0726 28.1871C24.5786 28.4714 24.9961 28.8926 25.2781 29.4034C25.5602 29.9142 25.6957 30.4943 25.6694 31.0786V32.7221C25.3974 32.3781 25.0548 32.0977 24.6651 31.9004C24.1483 31.6765 23.7187 31.2869 23.4428 30.7918C23.1669 30.2967 23.06 29.7236 23.1386 29.1611L23.1688 27.4363ZM23.1688 32.083C23.434 32.3774 23.7382 32.6334 24.0726 32.8439C24.5592 33.1574 24.9602 33.5891 25.2392 34.0995C25.5181 34.6099 25.666 35.1828 25.6694 35.7658V36.7093C24.9657 36.5818 24.3298 36.2057 23.8754 35.6481C23.421 35.0905 23.1776 34.3878 23.1888 33.6657L23.1688 32.083Z" fill="#00803E"/>
<path d="M128.372 9.48438H122.638V42.6601H128.372V9.48438Z" fill="#00803E"/>
<path d="M138.455 9.48438H132.721V42.6601H138.455V9.48438Z" fill="#00803E"/>
<path d="M200.721 28.9434L210.03 18.6255H202.579L194.082 28.3347V9.48438H188.348V42.6601H194.082V36.2583L196.804 33.2958L203.352 42.6601H210.422L200.721 28.9434Z" fill="#00803E"/>
<path d="M260.184 18.189C258.615 18.1567 257.065 18.5379 255.685 19.2949C254.404 20.0077 253.383 21.1173 252.773 22.4603V18.6253H247.169V51.6285H252.903V39.1598C254.4 41.6353 256.78 42.8629 260.054 42.8629C261.452 42.8981 262.842 42.6332 264.132 42.0859C265.422 41.5385 266.582 40.721 267.536 39.6873C269.544 37.5703 270.549 34.5064 270.549 30.4955C270.549 26.4847 269.564 23.441 267.596 21.3646C266.658 20.3302 265.51 19.5113 264.232 18.9635C262.953 18.4156 261.573 18.1515 260.184 18.189ZM263.027 35.8625C262.493 36.4542 261.841 36.9242 261.114 37.2409C260.387 37.5575 259.601 37.7137 258.809 37.6988C258.009 37.7136 257.215 37.5607 256.477 37.2499C255.739 36.9391 255.073 36.477 254.52 35.8929C253.899 35.1696 253.424 34.3295 253.124 33.4208C252.825 32.512 252.705 31.5524 252.773 30.597C252.704 29.643 252.823 28.6847 253.123 27.7775C253.423 26.8703 253.898 26.0321 254.52 25.3112C255.071 24.7251 255.737 24.2617 256.476 23.9507C257.214 23.6398 258.009 23.488 258.809 23.5053C259.6 23.4911 260.384 23.6465 261.111 23.9613C261.839 24.2761 262.491 24.7431 263.027 25.3315C264.264 26.7895 264.885 28.6808 264.754 30.597C264.885 32.5132 264.264 34.4045 263.027 35.8625Z" fill="#00803E"/>
<path d="M307.215 37.519C306.87 37.5637 306.519 37.5315 306.188 37.4246C305.857 37.3176 305.552 37.1386 305.297 36.9001C304.93 36.3668 304.756 35.7217 304.805 35.0739V23.8429H309.545V18.618H304.805V11.6074L299.07 13.2206V18.618H294.722V23.8429H299.07V34.8101C299.07 37.8335 299.673 39.8964 300.878 40.9989C302.093 42.1047 303.891 42.6526 306.351 42.6526H310.107V37.519H307.215Z" fill="#00803E"/>
<path d="M108.909 18.1887C107.401 18.1556 105.901 18.4316 104.502 19.0001C103.102 19.5685 101.83 20.4176 100.764 21.4961C98.555 23.7078 97.4503 26.7853 97.4503 30.7285C97.4503 34.6717 98.5684 37.7492 100.805 39.9609C102.955 42.0662 105.845 43.2229 108.839 43.177C111.339 43.2167 113.783 42.4293 115.799 40.9349C117.698 39.5557 118.994 37.4864 119.414 35.1621H114.142C113.846 36.0597 113.239 36.8197 112.434 37.3028C111.431 37.8988 110.284 38.201 109.12 38.1753C107.549 38.2328 106.013 37.6976 104.812 36.6738C104.222 36.1322 103.754 35.4686 103.44 34.728C103.126 33.9875 102.974 33.1874 102.994 32.3822H119.545V30.0285C119.545 26.2341 118.54 23.302 116.532 21.2628C115.537 20.2502 114.348 19.4548 113.037 18.926C111.725 18.3971 110.32 18.1462 108.909 18.1887ZM103.135 28.1617C103.202 27.436 103.415 26.7316 103.76 26.0916C104.105 25.4515 104.576 24.889 105.143 24.4383C106.227 23.6067 107.558 23.1704 108.919 23.2006C110.258 23.1413 111.567 23.6148 112.565 24.5195C113.041 24.9925 113.415 25.5607 113.663 26.1878C113.91 26.8149 114.025 27.4871 114.001 28.1617H103.135Z" fill="#00803E"/>
<path d="M283.594 18.1889C282.086 18.1547 280.586 18.4301 279.186 18.9987C277.786 19.5672 276.515 20.4169 275.449 21.4963C273.233 23.7081 272.125 26.7855 272.125 30.7287C272.125 34.6719 273.247 37.7494 275.49 39.9611C276.554 41.004 277.811 41.8248 279.19 42.3766C280.569 42.9285 282.041 43.2005 283.524 43.1772C286.024 43.2169 288.468 42.4295 290.484 40.9351C292.405 39.567 293.724 37.4963 294.159 35.1623H288.837C288.537 36.0582 287.932 36.8171 287.129 37.303C285.937 37.9688 284.577 38.2643 283.219 38.1524C281.861 38.0405 280.566 37.5262 279.497 36.674C278.91 36.1302 278.445 35.466 278.133 34.7258C277.821 33.9856 277.67 33.1866 277.689 32.3824H294.24V30.0287C294.24 26.2343 293.235 23.3022 291.227 21.263C290.232 20.2476 289.041 19.4505 287.728 18.9216C286.415 18.3926 285.007 18.1432 283.594 18.1889ZM277.82 28.1619C277.881 27.44 278.086 26.7381 278.422 26.0982C278.759 25.4584 279.22 24.8939 279.778 24.4385C280.862 23.6069 282.193 23.1706 283.554 23.2008C284.89 23.1431 286.195 23.6166 287.19 24.5197C287.665 24.9937 288.04 25.5618 288.288 26.1885C288.537 26.8152 288.655 27.487 288.636 28.1619H277.82Z" fill="#00803E"/>
<path d="M152.555 18.1889C151.047 18.1558 149.547 18.4318 148.148 19.0003C146.748 19.5687 145.476 20.4178 144.41 21.4963C142.201 23.708 141.096 26.7855 141.096 30.7287C141.096 34.6719 142.214 37.7494 144.45 39.9611C145.52 41.0194 146.788 41.8523 148.179 42.4114C149.57 42.9705 151.058 43.2446 152.555 43.2178C155.055 43.2575 157.499 42.47 159.515 40.9756C161.406 39.5928 162.695 37.524 163.11 35.2029H157.838C157.542 36.1005 156.936 36.8605 156.13 37.3436C155.127 37.9396 153.98 38.2418 152.816 38.2161C151.25 38.2547 149.726 37.7053 148.538 36.674C147.948 36.1324 147.48 35.4688 147.166 34.7282C146.853 33.9877 146.7 33.1876 146.72 32.3824H163.271V30.0287C163.271 26.2343 162.267 23.3022 160.258 21.263C159.254 20.2402 158.052 19.4388 156.726 18.9097C155.4 18.3806 153.98 18.1351 152.555 18.1889ZM146.78 28.1619C146.842 27.44 147.047 26.7381 147.383 26.0982C147.72 25.4584 148.181 24.8938 148.739 24.4385C149.834 23.5981 151.18 23.1613 152.555 23.2008C153.894 23.1415 155.203 23.615 156.201 24.5197C156.677 24.9927 157.051 25.5609 157.298 26.188C157.546 26.8151 157.661 27.4873 157.637 28.1619H146.78Z" fill="#00803E"/>
<path d="M182.403 29.8966C180.389 29.0824 178.273 28.5565 176.116 28.3342C174.807 28.1886 173.519 27.889 172.28 27.4414C171.924 27.3117 171.619 27.0702 171.409 26.7525C171.2 26.4348 171.096 26.0575 171.115 25.6761C171.118 25.3015 171.211 24.9333 171.386 24.603C171.561 24.2726 171.812 23.9899 172.119 23.7789C173.014 23.2 174.072 22.9327 175.132 23.018C177.632 23.018 179.058 24.0325 179.39 25.9297H185.014C184.943 24.8348 184.645 23.7672 184.138 22.7969C183.631 21.8265 182.927 20.9753 182.071 20.299C180.029 18.8176 177.553 18.0742 175.041 18.1887C172.651 18.0973 170.294 18.7681 168.303 20.1062C167.408 20.7538 166.69 21.6205 166.218 22.6249C165.745 23.6294 165.533 24.7386 165.601 25.8486C165.601 26.021 165.601 26.1834 165.601 26.3457C165.586 27.4312 165.871 28.4994 166.424 29.4298C166.978 30.3603 167.778 31.1158 168.734 31.6112C169.593 32.0382 170.501 32.3584 171.436 32.5649L172.139 32.7374L173.515 33.0214L173.947 33.1026L175.543 33.3867C176.749 33.5272 177.931 33.8274 179.058 34.2795C179.336 34.4135 179.568 34.6276 179.726 34.8949C179.883 35.1621 179.958 35.4705 179.942 35.781C179.942 37.526 178.556 38.3884 175.805 38.3884C172.792 38.3884 171.094 37.313 170.693 35.1621H164.878C164.951 36.3866 165.294 37.579 165.882 38.6522C166.484 39.7413 167.352 40.6565 168.403 41.3103C169.432 41.9452 170.549 42.4205 171.717 42.7205C172.945 43.0315 174.207 43.1849 175.473 43.1771C178.022 43.2867 180.54 42.5762 182.664 41.148C183.602 40.4921 184.359 39.6062 184.865 38.5733C185.371 37.5404 185.609 36.3945 185.556 35.2433C185.622 34.1353 185.357 33.0328 184.795 32.0792C184.232 31.1256 183.399 30.3651 182.403 29.8966Z" fill="#00803E"/>
<path d="M212.692 44.0496C212.741 44.7005 212.567 45.3488 212.2 45.8859C211.942 46.1214 211.638 46.2978 211.307 46.4029C210.975 46.508 210.626 46.5393 210.281 46.4946H208.343V51.6282H211.145C213.589 51.6282 215.413 51.077 216.618 49.9745C217.824 48.8721 218.426 46.8125 218.426 43.7959V18.625H212.692V44.0496Z" fill="#00803E"/>
<path d="M240.691 21.1819L242.479 18.676L240.671 17.3672L238.924 19.8224C237.039 18.7039 234.883 18.1382 232.697 18.189C231.152 18.1361 229.612 18.4092 228.177 18.9909C226.742 19.5726 225.442 20.4501 224.362 21.5674C222.192 23.813 221.108 26.8566 221.108 30.6984C221.022 32.3624 221.265 34.0271 221.824 35.595C222.383 37.1628 223.245 38.6024 224.362 39.8293L224.542 40.0018L222.634 42.6802L224.442 43.9991L226.28 41.4221C228.195 42.6418 230.423 43.2662 232.687 43.2179C234.24 43.2761 235.788 43.0066 237.231 42.4267C238.675 41.8467 239.984 40.969 241.073 39.8496C242.189 38.6226 243.052 37.1831 243.61 35.6153C244.169 34.0474 244.413 32.3827 244.327 30.7186C244.327 26.8837 243.242 23.84 241.073 21.5877L240.691 21.1819ZM226.963 30.8607C226.838 28.9406 227.386 27.0374 228.509 25.4836C229.006 24.8647 229.638 24.371 230.357 24.0418C231.075 23.7125 231.859 23.5566 232.647 23.5864C233.71 23.5604 234.758 23.8496 235.66 24.4183L228.007 35.1522C227.269 33.8482 226.908 32.3616 226.963 30.8607ZM236.915 35.9334C236.417 36.5493 235.783 37.0401 235.066 37.3675C234.348 37.6949 233.565 37.8499 232.778 37.8205C231.621 37.8306 230.491 37.4759 229.544 36.8059L236.413 27.1779L237.277 25.9706C238.129 27.3214 238.546 28.9055 238.472 30.5056C238.592 32.4299 238.041 34.3361 236.915 35.8928V35.9334Z" fill="#00803E"/>
<path d="M74 42.6598H79.9855V28.9837H94.9393V23.2819H79.9855V15.6626H95.7227V10.0015H74V42.6598Z" fill="#00803E"/>
<path d="M215.564 8.5C214.881 8.5 214.213 8.70469 213.645 9.08818C213.076 9.47167 212.634 10.0167 212.372 10.6545C212.111 11.2922 212.042 11.9939 212.176 12.6709C212.309 13.3479 212.638 13.9698 213.121 14.4579C213.604 14.946 214.22 15.2784 214.89 15.413C215.56 15.5477 216.255 15.4786 216.886 15.2144C217.517 14.9503 218.057 14.5029 218.436 13.929C218.816 13.3551 219.019 12.6803 219.019 11.99C219.019 11.0644 218.655 10.1767 218.007 9.52221C217.359 8.8677 216.48 8.5 215.564 8.5Z" fill="#00803E"/>
</svg>
